<?xml version="1.0" encoding="UTF-8" standalone="no"?>
<!DOCTYPE svg PUBLIC "-//W3C//DTD SVG 1.1//EN"
"http://www.w3.org/Graphics/SVG/1.1/DTD/svg11.dtd">
<svg viewBox="0 0 909 1286" version="1.1" xmlns="http://www.w3.org/2000/svg" xmlns:xlink="http://www.w3.org/1999/xlink">
<defs>
<style type="text/css"><![CDATA[
.g0{
}
.g1{
fill: none;
stroke: #000000;
stroke-width: 0.733;
stroke-linecap: butt;
stroke-linejoin: round;
stroke-dasharray: 1,1;
}
.g2{
fill: #D9D9D9;
}
]]></style>
</defs>
<image preserveAspectRatio="none" x="72" y="116" width="197" height="35" xlink:href="img/1.png"/>
<path fill-rule="evenodd" d="M59,54.8h.8v-.7H59v.7Z" class="g0"/>
<path fill-rule="evenodd" d="M59,54.8h.8v-.7H59v.7Z" class="g0"/>
<path fill-rule="evenodd" d="M59.8,54.8H281.1v-.7H59.8v.7Z" class="g0"/>
<path fill-rule="evenodd" d="M281.1,54.8h.7v-.7h-.7v.7Z" class="g0"/>
<path fill-rule="evenodd" d="M281.8,54.8H573.6v-.7H281.8v.7Z" class="g0"/>
<path fill-rule="evenodd" d="M573.6,54.8h.7v-.7h-.7v.7Z" class="g0"/>
<path fill-rule="evenodd" d="M574.3,54.8H849.5v-.7H574.3v.7Z" class="g0"/>
<path fill-rule="evenodd" d="M849.5,54.8h.8v-.7h-.8v.7Z" class="g0"/>
<path fill-rule="evenodd" d="M849.5,54.8h.8v-.7h-.8v.7Z" class="g0"/>
<path fill-rule="evenodd" d="M59,97.5h.8V54.8H59V97.5Z" class="g0"/>
<path fill-rule="evenodd" d="M281.1,97.5h.7V54.8h-.7V97.5Z" class="g0"/>
<path fill-rule="evenodd" d="M573.6,97.5h.7V54.8h-.7V97.5Z" class="g0"/>
<path fill-rule="evenodd" d="M849.5,97.5h.8V54.8h-.8V97.5Z" class="g0"/>
<path fill-rule="evenodd" d="M59,98.3h.8v-.8H59v.8Z" class="g0"/>
<path fill-rule="evenodd" d="M281.1,98.3h.7v-.8h-.7v.8Z" class="g0"/>
<path fill-rule="evenodd" d="M573.6,98.3h.7v-.8h-.7v.8Z" class="g0"/>
<path fill-rule="evenodd" d="M574.3,98.3H682v-.8H574.3v.8Z" class="g0"/>
<path fill-rule="evenodd" d="M682,98.3h.7v-.8H682v.8Z" class="g0"/>
<path fill-rule="evenodd" d="M682.7,98.3H849.5v-.8H682.7v.8Z" class="g0"/>
<path fill-rule="evenodd" d="M849.5,98.3h.8v-.8h-.8v.8Z" class="g0"/>
<path fill-rule="evenodd" d="M59,119.9h.8V98.3H59v21.6Z" class="g0"/>
<path fill-rule="evenodd" d="M281.1,119.9h.7V98.3h-.7v21.6Z" class="g0"/>
<path fill-rule="evenodd" d="M573.6,119.9h.7V98.3h-.7v21.6Z" class="g0"/>
<path fill-rule="evenodd" d="M682,119.9h.7V98.3H682v21.6Z" class="g0"/>
<path fill-rule="evenodd" d="M849.5,119.9h.8V98.3h-.8v21.6Z" class="g0"/>
<path fill-rule="evenodd" d="M59,120.7h.8v-.8H59v.8Z" class="g0"/>
<path fill-rule="evenodd" d="M281.1,120.7h.7v-.8h-.7v.8Z" class="g0"/>
<path fill-rule="evenodd" d="M573.6,120.7h.7v-.8h-.7v.8Z" class="g0"/>
<path fill-rule="evenodd" d="M574.3,120.7H682v-.8H574.3v.8Z" class="g0"/>
<path fill-rule="evenodd" d="M682,120.7h.7v-.8H682v.8Z" class="g0"/>
<path fill-rule="evenodd" d="M682.7,120.7H849.5v-.8H682.7v.8Z" class="g0"/>
<path fill-rule="evenodd" d="M849.5,120.7h.8v-.8h-.8v.8Z" class="g0"/>
<path fill-rule="evenodd" d="M59,142.3h.8V120.7H59v21.6Z" class="g0"/>
<path fill-rule="evenodd" d="M281.1,142.3h.7V120.7h-.7v21.6Z" class="g0"/>
<path fill-rule="evenodd" d="M573.6,142.3h.7V120.7h-.7v21.6Z" class="g0"/>
<path fill-rule="evenodd" d="M682,142.3h.7V120.7H682v21.6Z" class="g0"/>
<path fill-rule="evenodd" d="M849.5,142.3h.8V120.7h-.8v21.6Z" class="g0"/>
<path fill-rule="evenodd" d="M59,143h.8v-.7H59v.7Z" class="g0"/>
<path fill-rule="evenodd" d="M281.1,143h.7v-.7h-.7v.7Z" class="g0"/>
<path fill-rule="evenodd" d="M573.6,143h.7v-.7h-.7v.7Z" class="g0"/>
<path fill-rule="evenodd" d="M574.3,143H682v-.7H574.3v.7Z" class="g0"/>
<path fill-rule="evenodd" d="M682,143h.7v-.7H682v.7Z" class="g0"/>
<path fill-rule="evenodd" d="M682.7,143H849.5v-.7H682.7v.7Z" class="g0"/>
<path fill-rule="evenodd" d="M849.5,143h.8v-.7h-.8v.7Z" class="g0"/>
<path fill-rule="evenodd" d="M59,164.7h.8V143H59v21.7Z" class="g0"/>
<path fill-rule="evenodd" d="M281.1,164.7h.7V143h-.7v21.7Z" class="g0"/>
<path fill-rule="evenodd" d="M573.6,164.7h.7V143h-.7v21.7Z" class="g0"/>
<path fill-rule="evenodd" d="M682,164.7h.7V143H682v21.7Z" class="g0"/>
<path fill-rule="evenodd" d="M849.5,164.7h.8V143h-.8v21.7Z" class="g0"/>
<path fill-rule="evenodd" d="M59,165.4h.8v-.7H59v.7Z" class="g0"/>
<path fill-rule="evenodd" d="M281.1,165.4h.7v-.7h-.7v.7Z" class="g0"/>
<path fill-rule="evenodd" d="M573.6,165.4h.7v-.7h-.7v.7Z" class="g0"/>
<path fill-rule="evenodd" d="M574.3,165.4H682v-.7H574.3v.7Z" class="g0"/>
<path fill-rule="evenodd" d="M682,165.4h.7v-.7H682v.7Z" class="g0"/>
<path fill-rule="evenodd" d="M682.7,165.4H849.5v-.7H682.7v.7Z" class="g0"/>
<path fill-rule="evenodd" d="M849.5,165.4h.8v-.7h-.8v.7Z" class="g0"/>
<path fill-rule="evenodd" d="M59,187h.8V165.4H59V187Z" class="g0"/>
<path fill-rule="evenodd" d="M281.1,187h.7V165.4h-.7V187Z" class="g0"/>
<path fill-rule="evenodd" d="M573.6,187h.7V165.4h-.7V187Z" class="g0"/>
<path fill-rule="evenodd" d="M682,187h.7V165.4H682V187Z" class="g0"/>
<path fill-rule="evenodd" d="M849.5,187h.8V165.4h-.8V187Z" class="g0"/>
<path fill-rule="evenodd" d="M59,187.8h.8V187H59v.8Z" class="g0"/>
<path fill-rule="evenodd" d="M281.1,187.8h.7V187h-.7v.8Z" class="g0"/>
<path fill-rule="evenodd" d="M573.6,187.8h.7V187h-.7v.8Z" class="g0"/>
<path fill-rule="evenodd" d="M574.3,187.8H682V187H574.3v.8Z" class="g0"/>
<path fill-rule="evenodd" d="M682,187.8h.7V187H682v.8Z" class="g0"/>
<path fill-rule="evenodd" d="M682.7,187.8H849.5V187H682.7v.8Z" class="g0"/>
<path fill-rule="evenodd" d="M849.5,187.8h.8V187h-.8v.8Z" class="g0"/>
<path fill-rule="evenodd" d="M59,209.6h.8V187.8H59v21.8Z" class="g0"/>
<path fill-rule="evenodd" d="M59,210.3h.8v-.7H59v.7Z" class="g0"/>
<path fill-rule="evenodd" d="M59,210.3h.8v-.7H59v.7Z" class="g0"/>
<path fill-rule="evenodd" d="M59.8,210.3H281.1v-.7H59.8v.7Z" class="g0"/>
<path fill-rule="evenodd" d="M281.1,209.6h.7V187.8h-.7v21.8Z" class="g0"/>
<path fill-rule="evenodd" d="M281.1,210.3h.7v-.7h-.7v.7Z" class="g0"/>
<path fill-rule="evenodd" d="M281.8,210.3H573.6v-.7H281.8v.7Z" class="g0"/>
<path fill-rule="evenodd" d="M573.6,209.6h.7V187.8h-.7v21.8Z" class="g0"/>
<path fill-rule="evenodd" d="M573.6,210.3h.7v-.7h-.7v.7Z" class="g0"/>
<path fill-rule="evenodd" d="M574.3,210.3H682v-.7H574.3v.7Z" class="g0"/>
<path fill-rule="evenodd" d="M682,209.6h.7V187.8H682v21.8Z" class="g0"/>
<path fill-rule="evenodd" d="M682,210.3h.7v-.7H682v.7Z" class="g0"/>
<path fill-rule="evenodd" d="M682.7,210.3H849.5v-.7H682.7v.7Z" class="g0"/>
<path fill-rule="evenodd" d="M849.5,209.6h.8V187.8h-.8v21.8Z" class="g0"/>
<path fill-rule="evenodd" d="M849.5,210.3h.8v-.7h-.8v.7Z" class="g0"/>
<path fill-rule="evenodd" d="M849.5,210.3h.8v-.7h-.8v.7Z" class="g0"/>
<path d="M291.2,264.6H541.3M335.6,350H530.5m0,0h.7m0,0H638.8m0,0h.8m0,0H833.8M335.6,381.2H530.5m0,0h.7m0,0H638.8m0,0h.8m0,0H833.8M335.6,412.4H833.8m-499.3,31H833.8M335.6,542.2H833.8M335.6,573.4H833.8M334.5,604.3H833.8" class="g1"/>
<path fill-rule="evenodd" d="M97.9,679h42.6v-2.8H97.9V679Z" class="g2"/>
<path fill-rule="evenodd" d="M97.9,699.5h7.9V679H97.9v20.5Z" class="g2"/>
<path fill-rule="evenodd" d="M132.6,699.5h7.9V679h-7.9v20.5Z" class="g2"/>
<path fill-rule="evenodd" d="M97.9,702.3h42.6v-2.8H97.9v2.8Z" class="g2"/>
<path fill-rule="evenodd" d="M105.8,699.5h26.8V679H105.8v20.5Z" class="g2"/>
<path fill-rule="evenodd" d="M141.2,679H421.9v-2.8H141.2V679Z" class="g2"/>
<path fill-rule="evenodd" d="M141.2,699.5h7.9V679h-7.9v20.5Z" class="g2"/>
<path fill-rule="evenodd" d="M414,699.5h7.9V679H414v20.5Z" class="g2"/>
<path fill-rule="evenodd" d="M141.2,702.3H421.9v-2.8H141.2v2.8Z" class="g2"/>
<path fill-rule="evenodd" d="M149.1,699.5H414V679H149.1v20.5Z" class="g2"/>
<path fill-rule="evenodd" d="M422.7,679H638.5v-2.8H422.7V679Z" class="g2"/>
<path fill-rule="evenodd" d="M422.7,699.5h7.8V679h-7.8v20.5Z" class="g2"/>
<path fill-rule="evenodd" d="M630.8,699.5h7.7V679h-7.7v20.5Z" class="g2"/>
<path fill-rule="evenodd" d="M422.7,702.3H638.5v-2.8H422.7v2.8Z" class="g2"/>
<path fill-rule="evenodd" d="M430.5,699.5H630.8V679H430.5v20.5Z" class="g2"/>
<path fill-rule="evenodd" d="M639.4,679h194v-2.8h-194V679Z" class="g2"/>
<path fill-rule="evenodd" d="M639.4,699.5h7.9V679h-7.9v20.5Z" class="g2"/>
<path fill-rule="evenodd" d="M825.5,699.5h7.9V679h-7.9v20.5Z" class="g2"/>
<path fill-rule="evenodd" d="M639.4,702.3h194v-2.8h-194v2.8Z" class="g2"/>
<path fill-rule="evenodd" d="M647.3,699.5H825.5V679H647.3v20.5Z" class="g2"/>
<path fill-rule="evenodd" d="M97,676.2h.8v-.7H97v.7Z" class="g0"/>
<path fill-rule="evenodd" d="M97,676.2h.8v-.7H97v.7Z" class="g0"/>
<path fill-rule="evenodd" d="M97.8,676.2h42.5v-.7H97.8v.7Z" class="g0"/>
<path fill-rule="evenodd" d="M140.3,676.2h.7v-.7h-.7v.7Z" class="g0"/>
<path fill-rule="evenodd" d="M141,676.2H421.9v-.7H141v.7Z" class="g0"/>
<path fill-rule="evenodd" d="M421.9,676.2h.8v-.7h-.8v.7Z" class="g0"/>
<path fill-rule="evenodd" d="M422.7,676.2H638.5v-.7H422.7v.7Z" class="g0"/>
<path fill-rule="evenodd" d="M638.5,676.2h.7v-.7h-.7v.7Z" class="g0"/>
<path fill-rule="evenodd" d="M639.2,676.2H833.4v-.7H639.2v.7Z" class="g0"/>
<path fill-rule="evenodd" d="M833.4,676.2h.7v-.7h-.7v.7Z" class="g0"/>
<path fill-rule="evenodd" d="M833.4,676.2h.7v-.7h-.7v.7Z" class="g0"/>
<path fill-rule="evenodd" d="M97,702.3h.8V676.2H97v26.1Z" class="g0"/>
<path fill-rule="evenodd" d="M140.3,702.3h.7V676.2h-.7v26.1Z" class="g0"/>
<path fill-rule="evenodd" d="M421.9,702.3h.8V676.2h-.8v26.1Z" class="g0"/>
<path fill-rule="evenodd" d="M638.5,702.3h.7V676.2h-.7v26.1Z" class="g0"/>
<path fill-rule="evenodd" d="M833.4,702.3h.7V676.2h-.7v26.1Z" class="g0"/>
<path fill-rule="evenodd" d="M97,703h.8v-.7H97v.7Z" class="g0"/>
<path fill-rule="evenodd" d="M97.8,703h42.5v-.7H97.8v.7Z" class="g0"/>
<path fill-rule="evenodd" d="M140.3,703h.7v-.7h-.7v.7Z" class="g0"/>
<path fill-rule="evenodd" d="M141,703H421.9v-.7H141v.7Z" class="g0"/>
<path fill-rule="evenodd" d="M421.9,703h.8v-.7h-.8v.7Z" class="g0"/>
<path fill-rule="evenodd" d="M422.7,703H638.5v-.7H422.7v.7Z" class="g0"/>
<path fill-rule="evenodd" d="M638.5,703h.7v-.7h-.7v.7Z" class="g0"/>
<path fill-rule="evenodd" d="M639.2,703H833.4v-.7H639.2v.7Z" class="g0"/>
<path fill-rule="evenodd" d="M833.4,703h.7v-.7h-.7v.7Z" class="g0"/>
<path fill-rule="evenodd" d="M97,746.5h.8V703H97v43.5Z" class="g0"/>
<path fill-rule="evenodd" d="M140.3,746.5h.7V703h-.7v43.5Z" class="g0"/>
<path fill-rule="evenodd" d="M421.9,746.5h.8V703h-.8v43.5Z" class="g0"/>
<path fill-rule="evenodd" d="M638.5,746.5h.7V703h-.7v43.5Z" class="g0"/>
<path fill-rule="evenodd" d="M833.4,746.5h.7V703h-.7v43.5Z" class="g0"/>
<path fill-rule="evenodd" d="M97,747.2h.8v-.7H97v.7Z" class="g0"/>
<path fill-rule="evenodd" d="M97.8,747.2h42.5v-.7H97.8v.7Z" class="g0"/>
<path fill-rule="evenodd" d="M140.3,747.2h.7v-.7h-.7v.7Z" class="g0"/>
<path fill-rule="evenodd" d="M141,747.2H421.9v-.7H141v.7Z" class="g0"/>
<path fill-rule="evenodd" d="M421.9,747.2h.8v-.7h-.8v.7Z" class="g0"/>
<path fill-rule="evenodd" d="M422.7,747.2H638.5v-.7H422.7v.7Z" class="g0"/>
<path fill-rule="evenodd" d="M638.5,747.2h.7v-.7h-.7v.7Z" class="g0"/>
<path fill-rule="evenodd" d="M639.2,747.2H833.4v-.7H639.2v.7Z" class="g0"/>
<path fill-rule="evenodd" d="M833.4,747.2h.7v-.7h-.7v.7Z" class="g0"/>
<path fill-rule="evenodd" d="M97,790.5h.8V747.2H97v43.3Z" class="g0"/>
<path fill-rule="evenodd" d="M140.3,790.5h.7V747.2h-.7v43.3Z" class="g0"/>
<path fill-rule="evenodd" d="M421.9,790.5h.8V747.2h-.8v43.3Z" class="g0"/>
<path fill-rule="evenodd" d="M638.5,790.5h.7V747.2h-.7v43.3Z" class="g0"/>
<path fill-rule="evenodd" d="M833.4,790.5h.7V747.2h-.7v43.3Z" class="g0"/>
<path fill-rule="evenodd" d="M97,791.2h.8v-.7H97v.7Z" class="g0"/>
<path fill-rule="evenodd" d="M97.8,791.2h42.5v-.7H97.8v.7Z" class="g0"/>
<path fill-rule="evenodd" d="M140.3,791.2h.7v-.7h-.7v.7Z" class="g0"/>
<path fill-rule="evenodd" d="M141,791.2H421.9v-.7H141v.7Z" class="g0"/>
<path fill-rule="evenodd" d="M421.9,791.2h.8v-.7h-.8v.7Z" class="g0"/>
<path fill-rule="evenodd" d="M422.7,791.2H638.5v-.7H422.7v.7Z" class="g0"/>
<path fill-rule="evenodd" d="M638.5,791.2h.7v-.7h-.7v.7Z" class="g0"/>
<path fill-rule="evenodd" d="M639.2,791.2H833.4v-.7H639.2v.7Z" class="g0"/>
<path fill-rule="evenodd" d="M833.4,791.2h.7v-.7h-.7v.7Z" class="g0"/>
<path fill-rule="evenodd" d="M97,834.5h.8V791.2H97v43.3Z" class="g0"/>
<path fill-rule="evenodd" d="M140.3,834.5h.7V791.2h-.7v43.3Z" class="g0"/>
<path fill-rule="evenodd" d="M421.9,834.5h.8V791.2h-.8v43.3Z" class="g0"/>
<path fill-rule="evenodd" d="M638.5,834.5h.7V791.2h-.7v43.3Z" class="g0"/>
<path fill-rule="evenodd" d="M833.4,834.5h.7V791.2h-.7v43.3Z" class="g0"/>
<path fill-rule="evenodd" d="M97,835.2h.8v-.7H97v.7Z" class="g0"/>
<path fill-rule="evenodd" d="M97.8,835.2h42.5v-.7H97.8v.7Z" class="g0"/>
<path fill-rule="evenodd" d="M140.3,835.2h.7v-.7h-.7v.7Z" class="g0"/>
<path fill-rule="evenodd" d="M141,835.2H421.9v-.7H141v.7Z" class="g0"/>
<path fill-rule="evenodd" d="M421.9,835.2h.8v-.7h-.8v.7Z" class="g0"/>
<path fill-rule="evenodd" d="M422.7,835.2H638.5v-.7H422.7v.7Z" class="g0"/>
<path fill-rule="evenodd" d="M638.5,835.2h.7v-.7h-.7v.7Z" class="g0"/>
<path fill-rule="evenodd" d="M639.2,835.2H833.4v-.7H639.2v.7Z" class="g0"/>
<path fill-rule="evenodd" d="M833.4,835.2h.7v-.7h-.7v.7Z" class="g0"/>
<path fill-rule="evenodd" d="M97,878.7h.8V835.2H97v43.5Z" class="g0"/>
<path fill-rule="evenodd" d="M140.3,878.7h.7V835.2h-.7v43.5Z" class="g0"/>
<path fill-rule="evenodd" d="M421.9,878.7h.8V835.2h-.8v43.5Z" class="g0"/>
<path fill-rule="evenodd" d="M638.5,878.7h.7V835.2h-.7v43.5Z" class="g0"/>
<path fill-rule="evenodd" d="M833.4,878.7h.7V835.2h-.7v43.5Z" class="g0"/>
<path fill-rule="evenodd" d="M97,879.4h.8v-.7H97v.7Z" class="g0"/>
<path fill-rule="evenodd" d="M97.8,879.4h42.5v-.7H97.8v.7Z" class="g0"/>
<path fill-rule="evenodd" d="M140.3,879.4h.7v-.7h-.7v.7Z" class="g0"/>
<path fill-rule="evenodd" d="M141,879.4H421.9v-.7H141v.7Z" class="g0"/>
<path fill-rule="evenodd" d="M421.9,879.4h.8v-.7h-.8v.7Z" class="g0"/>
<path fill-rule="evenodd" d="M422.7,879.4H638.5v-.7H422.7v.7Z" class="g0"/>
<path fill-rule="evenodd" d="M638.5,879.4h.7v-.7h-.7v.7Z" class="g0"/>
<path fill-rule="evenodd" d="M639.2,879.4H833.4v-.7H639.2v.7Z" class="g0"/>
<path fill-rule="evenodd" d="M833.4,879.4h.7v-.7h-.7v.7Z" class="g0"/>
<path fill-rule="evenodd" d="M97,922.7h.8V879.4H97v43.3Z" class="g0"/>
<path fill-rule="evenodd" d="M97,923.4h.8v-.7H97v.7Z" class="g0"/>
<path fill-rule="evenodd" d="M97,923.4h.8v-.7H97v.7Z" class="g0"/>
<path fill-rule="evenodd" d="M97.8,923.4h42.5v-.7H97.8v.7Z" class="g0"/>
<path fill-rule="evenodd" d="M140.3,922.7h.7V879.4h-.7v43.3Z" class="g0"/>
<path fill-rule="evenodd" d="M140.3,923.4h.7v-.7h-.7v.7Z" class="g0"/>
<path fill-rule="evenodd" d="M141,923.4H421.9v-.7H141v.7Z" class="g0"/>
<path fill-rule="evenodd" d="M421.9,922.7h.8V879.4h-.8v43.3Z" class="g0"/>
<path fill-rule="evenodd" d="M421.9,923.4h.8v-.7h-.8v.7Z" class="g0"/>
<path fill-rule="evenodd" d="M422.7,923.4H638.5v-.7H422.7v.7Z" class="g0"/>
<path fill-rule="evenodd" d="M638.5,922.7h.7V879.4h-.7v43.3Z" class="g0"/>
<path fill-rule="evenodd" d="M638.5,923.4h.7v-.7h-.7v.7Z" class="g0"/>
<path fill-rule="evenodd" d="M639.2,923.4H833.4v-.7H639.2v.7Z" class="g0"/>
<path fill-rule="evenodd" d="M833.4,922.7h.7V879.4h-.7v43.3Z" class="g0"/>
<path fill-rule="evenodd" d="M833.4,923.4h.7v-.7h-.7v.7Z" class="g0"/>
<path fill-rule="evenodd" d="M833.4,923.4h.7v-.7h-.7v.7Z" class="g0"/>
<path fill-rule="evenodd" d="M181.3,1191.5H341.1v-1.1H181.3v1.1Z" class="g0"/>
<path fill-rule="evenodd" d="M558,1191.5H721.4v-1.1H558v1.1Z" class="g0"/>
</svg>